<svg xmlns="http://www.w3.org/2000/svg" viewBox="0 0 64 64">
  <rect x="4" y="4" width="56" height="56" rx="16" ry="16" fill="#FBBF24"/>
  <path fill="#fff" transform="translate(14,14) scale(1.5)" d="M8.35,3C9.53,2.83 10.78,4.12 11.14,5.9C11.5,7.67 10.85,9.25 9.67,9.43C8.5,9.61 7.24,8.32 6.87,6.54C6.5,4.77 7.17,3.19 8.35,3M15.5,3C16.69,3.19 17.35,4.77 17,6.54C16.62,8.32 15.37,9.61 14.19,9.43C13,9.25 12.35,7.67 12.72,5.9C13.08,4.12 14.33,2.83 15.5,3M3,7.6C4.14,7.11 5.69,8 6.5,9.55C7.26,11.13 7,12.79 5.87,13.28C4.74,13.77 3.2,12.89 2.41,11.32C1.62,9.75 1.9,8.08 3,7.6M21,7.6C22.1,8.08 22.38,9.75 21.59,11.32C20.8,12.89 19.26,13.77 18.13,13.28C17,12.79 16.74,11.13 17.5,9.55C18.31,8 19.86,7.11 21,7.6M19.33,18.38C19.37,19.32 18.65,20.36 17.79,20.75C16,21.57 13.88,19.62 11.94,19.63C10,19.62 7.91,21.57 6.1,20.75C5.23,20.36 4.5,19.32 4.56,18.38C4.63,17.44 4.83,16.29 5.77,15.17C7.21,13.41 8.5,13 9.25,12.5C10,12 10.5,11 12,11C13.5,11 14,12 14.75,12.5C15.5,13 16.79,13.41 18.23,15.17C19.17,16.29 19.37,17.44 19.33,18.38Z"/>
</svg>
